<svg width="59" height="52" viewBox="0 0 59 52" fill="none" xmlns="http://www.w3.org/2000/svg">
<path d="M34.9821 26.0061C34.9821 27.4483 34.4033 28.8316 33.373 29.8516C32.3426 30.8717 30.9451 31.4451 29.4877 31.4457C28.0299 31.4457 26.6317 30.8726 25.6009 29.8525C24.57 28.8323 23.9909 27.4488 23.9909 26.0061C23.9909 24.5638 24.5697 23.1806 25.6 22.1605C26.6303 21.1405 28.0278 20.5671 29.4853 20.5665C30.9431 20.5665 32.3412 21.1396 33.3721 22.1597C34.403 23.1798 34.9821 24.5634 34.9821 26.0061ZM41.4917 0C38.1828 0 33.8537 2.33544 29.4754 6.37867C25.0996 2.35733 20.768 0.0486549 17.4615 0.0486549C16.4536 0.0486549 15.5367 0.274901 14.7426 0.724959C11.3624 2.65413 10.6053 8.66545 12.3507 16.2094C4.8675 18.4962 0 22.1526 0 26.0061C0 29.8742 4.89208 33.5403 12.3974 35.8101C10.6667 43.3832 11.4386 49.4043 14.8262 51.331C15.6129 51.7859 16.5225 52 17.5353 52C20.8417 52 25.1733 49.6646 29.5516 45.6165C33.9275 49.6402 38.259 51.9489 41.5655 51.9489C42.5734 51.9489 43.4904 51.73 44.2844 51.2799C47.6622 49.3532 48.4218 43.3418 46.6764 35.7955C54.1325 33.5281 59 29.8644 59 26.0061C59 22.138 54.1079 18.4719 46.6026 16.1972C48.3333 8.63139 47.5614 2.60547 44.1738 0.676304C43.392 0.228678 42.4849 0.00243275 41.4917 0ZM41.4795 2.6517V2.66629C42.0326 2.66629 42.4775 2.77333 42.8512 2.97525C44.4885 3.90456 45.1989 7.43935 44.6458 11.9862C44.513 13.1052 44.2967 14.2851 44.0312 15.4893C41.6712 14.9152 39.0998 14.4749 36.3932 14.1902C34.7707 11.9886 33.0867 9.98886 31.3905 8.23729C35.3041 4.63682 38.9793 2.66143 41.4819 2.65413L41.4795 2.6517ZM17.4615 2.70035C19.9494 2.70035 23.6418 4.66601 27.5653 8.24702C25.8789 9.9986 24.1974 11.9862 22.5995 14.1878C19.8781 14.4724 17.3042 14.9127 14.9467 15.4966C14.6713 14.3046 14.4673 13.1514 14.3223 12.0421C13.7568 7.49773 14.455 3.96538 16.0775 3.02391C16.5446 2.80496 17.0608 2.71251 17.4615 2.70035ZM29.4631 10.1202C30.5817 11.2588 31.7002 12.5335 32.8065 13.9251C31.7248 13.8764 30.6185 13.8423 29.5 13.8423C28.3692 13.8423 27.2506 13.8667 26.1567 13.9251C27.2383 12.5335 28.3569 11.2612 29.4631 10.1202ZM29.5 16.5086C31.3192 16.5086 33.131 16.5913 34.9132 16.7349C35.9113 18.1507 36.8848 19.6615 37.8215 21.2598C38.736 22.8167 39.5669 24.398 40.324 25.9939C39.5669 27.5874 38.736 29.1808 37.8337 30.7378C36.8996 32.3434 35.9335 33.8712 34.9329 35.287C33.1432 35.4403 31.329 35.5254 29.5 35.5254C27.6808 35.5254 25.869 35.4403 24.0868 35.2992C23.0887 33.8833 22.1152 32.3702 21.1785 30.7743C20.264 29.2173 19.4331 27.636 18.676 26.0401C19.4208 24.4418 20.264 22.8459 21.1662 21.2866C22.1004 19.6809 23.0665 18.158 24.0671 16.7422C25.8567 16.5865 27.671 16.5038 29.5 16.5038V16.5086ZM20.564 17.1266C19.974 18.0437 19.384 18.9827 18.8333 19.9485C18.2802 20.8973 17.7639 21.8509 17.2722 22.8046C16.6208 21.2087 16.0677 19.6177 15.6104 18.068C17.1837 17.7031 18.8431 17.3771 20.564 17.1266ZM38.4115 17.1266C40.12 17.3771 41.7671 17.6861 43.3429 18.068C42.9004 19.6055 42.3473 21.1868 41.7204 22.7705C41.2287 21.8218 40.7125 20.8657 40.147 19.9145C39.5939 18.9608 39.0039 18.0315 38.4139 17.1266H38.4115ZM45.9413 18.7687C47.1312 19.1336 48.262 19.5398 49.3215 19.9802C53.5794 21.7804 56.3327 24.1353 56.3327 26.0036C56.3204 27.872 53.5671 30.2366 49.3092 32.0247C48.2767 32.4626 47.1459 32.8567 45.9782 33.224C45.2899 30.8935 44.3901 28.4656 43.274 25.9745C44.3803 23.5004 45.2653 21.0846 45.9413 18.7638V18.7687ZM13.012 18.7784C13.6954 21.1138 14.5976 23.5393 15.7161 26.028C14.6099 28.5021 13.72 30.9178 13.0464 33.2386C11.8565 32.8737 10.7257 32.465 9.67846 32.0223C5.42062 30.2293 2.66729 27.872 2.66729 26.0036C2.66729 24.1353 5.42062 21.7658 9.67846 19.9802C10.711 19.5423 11.8418 19.1482 13.012 18.7784ZM41.7204 29.1905C42.3718 30.7889 42.925 32.3823 43.3822 33.9295C41.8089 34.3115 40.147 34.635 38.4262 34.8783C39.0162 33.966 39.6062 33.0246 40.1593 32.0612C40.7125 31.1124 41.2262 30.1442 41.7204 29.1905ZM17.2722 29.2392C17.7639 30.1928 18.2802 31.144 18.8456 32.0977C19.411 33.0465 19.9887 33.9758 20.5787 34.8783C18.8702 34.6302 17.2231 34.3188 15.6473 33.9393C16.0898 32.4066 16.6454 30.8205 17.2698 29.2368L17.2722 29.2392ZM44.0533 36.5058C44.3287 37.7052 44.545 38.8607 44.6777 39.9676C45.2432 44.512 44.545 48.0444 42.9225 48.9883C42.5611 49.2072 42.0916 49.2997 41.5385 49.2997C39.0506 49.2997 35.3582 47.3364 31.4347 43.753C33.1211 42.0014 34.8026 40.0163 36.4005 37.8171C39.1219 37.53 41.6958 37.0897 44.0533 36.5058ZM14.9712 36.5302C17.3312 37.0994 19.9027 37.5397 22.6093 37.8244C24.2318 40.026 25.9158 42.0257 27.612 43.7749C23.691 47.3826 20.0108 49.358 17.5082 49.358C16.9674 49.3459 16.5102 49.2364 16.1488 49.0369C14.5115 48.1125 13.8011 44.5753 14.3542 40.0284C14.487 38.9094 14.7057 37.7319 14.9712 36.5302ZM26.1812 38.0871C27.2629 38.1358 28.3692 38.1698 29.4877 38.1698C30.6185 38.1698 31.7371 38.1455 32.831 38.0871C31.7494 39.4786 30.6308 40.751 29.5246 41.8944C28.406 40.751 27.2875 39.4786 26.1812 38.0871Z" fill="#61DAFB"/>
</svg>
